<?xml version="1.0" encoding="UTF-8" standalone="no"?>
<!-- Created with Inkscape (http://www.inkscape.org/) -->

<svg
   xmlns:dc="http://purl.org/dc/elements/1.1/"
   xmlns:cc="http://creativecommons.org/ns#"
   xmlns:rdf="http://www.w3.org/1999/02/22-rdf-syntax-ns#"
   xmlns:svg="http://www.w3.org/2000/svg"
   xmlns="http://www.w3.org/2000/svg"
   xmlns:sodipodi="http://sodipodi.sourceforge.net/DTD/sodipodi-0.dtd"
   xmlns:inkscape="http://www.inkscape.org/namespaces/inkscape"
   width="69.263634mm"
   height="47.591103mm"
   viewBox="0 0 69.263634 47.591102"
   version="1.1"
   id="svg8"
   inkscape:version="0.92.5 (2060ec1f9f, 2020-04-08)"
   sodipodi:docname="logo.svg">
  <defs
     id="defs2">
    <marker
       inkscape:stockid="DotM"
       orient="auto"
       refY="0"
       refX="0"
       id="DotM"
       style="overflow:visible"
       inkscape:isstock="true">
      <path
         id="path992"
         d="m -2.5,-1 c 0,2.76 -2.24,5 -5,5 -2.76,0 -5,-2.24 -5,-5 0,-2.76 2.24,-5 5,-5 2.76,0 5,2.24 5,5 z"
         style="fill:#264653;fill-opacity:1;fill-rule:evenodd;stroke:#264653;stroke-width:1.00000003pt;stroke-opacity:1"
         transform="matrix(0.4,0,0,0.4,2.96,0.4)"
         inkscape:connector-curvature="0" />
    </marker>
    <marker
       inkscape:isstock="true"
       style="overflow:visible"
       id="marker5401"
       refX="0"
       refY="0"
       orient="auto"
       inkscape:stockid="Arrow2Mend">
      <path
         transform="scale(-0.6)"
         d="M 8.7185878,4.0337352 -2.2072895,0.01601326 8.7185884,-4.0017078 c -1.7454984,2.3720609 -1.7354408,5.6174519 -6e-7,8.035443 z"
         style="fill:#264653;fill-opacity:1;fill-rule:evenodd;stroke:#264653;stroke-width:0.625;stroke-linejoin:round;stroke-opacity:1"
         id="path5399"
         inkscape:connector-curvature="0" />
    </marker>
    <marker
       inkscape:isstock="true"
       style="overflow:visible"
       id="marker4973"
       refX="0"
       refY="0"
       orient="auto"
       inkscape:stockid="Arrow2Lend">
      <path
         transform="matrix(-1.1,0,0,-1.1,-1.1,0)"
         d="M 8.7185878,4.0337352 -2.2072895,0.01601326 8.7185884,-4.0017078 c -1.7454984,2.3720609 -1.7354408,5.6174519 -6e-7,8.035443 z"
         style="fill:#000000;fill-opacity:1;fill-rule:evenodd;stroke:#000000;stroke-width:0.625;stroke-linejoin:round;stroke-opacity:1"
         id="path4971"
         inkscape:connector-curvature="0" />
    </marker>
    <marker
       inkscape:stockid="Arrow1Lend"
       orient="auto"
       refY="0"
       refX="0"
       id="Arrow1Lend"
       style="overflow:visible"
       inkscape:isstock="true">
      <path
         id="path4532"
         d="M 0,0 5,-5 -12.5,0 5,5 Z"
         style="fill:#000000;fill-opacity:1;fill-rule:evenodd;stroke:#000000;stroke-width:1.00000003pt;stroke-opacity:1"
         transform="matrix(-0.8,0,0,-0.8,-10,0)"
         inkscape:connector-curvature="0" />
    </marker>
  </defs>
  <sodipodi:namedview
     id="base"
     pagecolor="#ffffff"
     bordercolor="#666666"
     borderopacity="1.0"
     inkscape:pageopacity="0.0"
     inkscape:pageshadow="2"
     inkscape:zoom="1.8505427"
     inkscape:cx="-3.3048432"
     inkscape:cy="67.903216"
     inkscape:document-units="mm"
     inkscape:current-layer="layer1"
     showgrid="false"
     inkscape:window-width="1880"
     inkscape:window-height="1055"
     inkscape:window-x="40"
     inkscape:window-y="0"
     inkscape:window-maximized="1"
     fit-margin-top="0"
     fit-margin-left="0"
     fit-margin-right="0"
     fit-margin-bottom="0" />
  <metadata
     id="metadata5">
    <rdf:RDF>
      <cc:Work
         rdf:about="">
        <dc:format>image/svg+xml</dc:format>
        <dc:type
           rdf:resource="http://purl.org/dc/dcmitype/StillImage" />
        <dc:title />
      </cc:Work>
    </rdf:RDF>
  </metadata>
  <g
     inkscape:label="Layer 1"
     inkscape:groupmode="layer"
     id="layer1"
     transform="translate(510.27063,17.437895)">
    <path
       style="fill:#9259a3;fill-opacity:1;stroke:#000000;stroke-width:0.26458332px;stroke-linecap:butt;stroke-linejoin:miter;stroke-opacity:1"
       d="m -500.2623,14.139887 21.44641,-17.8720095 17.01415,4.28928242 -16.7282,24.44890908 z"
       id="path884"
       inkscape:connector-curvature="0" />
    <rect
       style="fill:#4d64ae;fill-opacity:1;fill-rule:nonzero;stroke:#000000;stroke-width:0.40352803;stroke-linecap:round;stroke-linejoin:miter;stroke-miterlimit:4;stroke-dasharray:none;stroke-dashoffset:0;stroke-opacity:1;paint-order:markers stroke fill"
       id="rect892"
       width="1.0709541"
       height="20.701872"
       x="426.70776"
       y="-217.6767"
       ry="0.51419497"
       transform="matrix(-0.90896732,0.41686737,0.46385485,0.88591121,0,0)" />
    <path
       style="fill:none;stroke:#399746;stroke-width:0.66500002;stroke-linecap:butt;stroke-linejoin:miter;stroke-miterlimit:4;stroke-dasharray:none;stroke-opacity:1"
       d="m -479.23113,3.3783336 c 1.84762,0.9976603 3.73668,-0.9481104 5.36643,-0.4189153 0.97473,1.4141401 -1.07809,3.8795234 0.41355,4.865359 0.74504,-0.09823 1.30859,-0.8956207 2.07001,-0.8336948"
       id="path886"
       inkscape:connector-curvature="0" />
    <path
       style="fill:none;stroke:#399746;stroke-width:0.66500002;stroke-linecap:butt;stroke-linejoin:miter;stroke-miterlimit:4;stroke-dasharray:none;stroke-opacity:1"
       d="m -484.82089,6.2762026 c 0.41285,-1.0948965 0.0533,1.5021526 0.42971,1.9360005 0.9995,2.1171109 3.64343,0.2757908 5.04502,0.9823825 0.9077,-1.3381533 1.97041,-0.2374475 1.6093,0.9624604 0.42869,0.558592 1.55399,0.128413 1.2086,1.266295"
       id="path888"
       inkscape:connector-curvature="0" />
    <path
       style="fill:none;stroke:#399746;stroke-width:0.66500002;stroke-linecap:butt;stroke-linejoin:miter;stroke-miterlimit:4;stroke-dasharray:none;stroke-opacity:1"
       d="m -489.82505,12.710126 c 1.56494,-0.460864 4.15661,-0.306032 3.72433,1.975651 0.91474,0.746695 2.85546,-0.942701 3.44431,1.131802 1.20141,0.09967 4.56456,-1.214644 3.25041,1.125252 0.22243,0.129475 0.49381,0.124058 0.73308,0.199553"
       id="path890"
       inkscape:connector-curvature="0" />
    <rect
       transform="matrix(-0.51242869,-0.85872978,-0.83074258,0.55665678,0,0)"
       ry="0.51419497"
       y="397.43826"
       x="246.52225"
       height="20.701872"
       width="1.0709541"
       id="rect904"
       style="fill:#ca3c32;fill-opacity:1;fill-rule:nonzero;stroke:#000000;stroke-width:0.40352803;stroke-linecap:round;stroke-linejoin:miter;stroke-miterlimit:4;stroke-dasharray:none;stroke-dashoffset:0;stroke-opacity:1;paint-order:markers stroke fill" />
    <rect
       style="fill:#9259a3;fill-opacity:1;fill-rule:nonzero;stroke:#000000;stroke-width:0.40352803;stroke-linecap:round;stroke-linejoin:miter;stroke-miterlimit:4;stroke-dasharray:none;stroke-dashoffset:0;stroke-opacity:1;paint-order:markers stroke fill"
       id="rect906"
       width="1.0709541"
       height="20.701872"
       x="383.10269"
       y="260.14902"
       ry="0.51419497"
       transform="matrix(-0.82815515,-0.56049893,-0.51640096,0.85634692,0,0)" />
  </g>
</svg>
